<svg xmlns="http://www.w3.org/2000/svg" viewBox="0 0 24 24">
    <defs>
        <style>.angrya{fill:#e7253e;}.angryb{fill:#b51f36;}.angryc{fill:#90192d;}</style>
    </defs>
    <rect class="angrya" x="1" y="1" width="22" height="22" rx="7.656" />
    <path class="angryb" d="M23,13.938a14.69,14.69,0,0,1-12.406,6.531c-5.542,0-6.563-1-9.142-2.529A7.66,7.66,0,0,0,8.656,23h6.688A7.656,7.656,0,0,0,23,15.344Z" />
    <path class="angryc" d="M9.565,8.513A16.121,16.121,0,0,1,5.63,6.328a.52.52,0,0,0-.832.4c-.048,1.583.151,4.483,2.258,4.483A2.6,2.6,0,0,0,9.9,9.1.517.517,0,0,0,9.565,8.513Z" />
    <path class="angryc" d="M19.2,6.731a.521.521,0,0,0-.832-.4,16.121,16.121,0,0,1-3.935,2.185A.517.517,0,0,0,14.1,9.1a2.6,2.6,0,0,0,2.84,2.11C19.051,11.214,19.25,8.314,19.2,6.731Z" />
    <path class="angryc" d="M14,13.937a.318.318,0,0,1-.313-.326,2.105,2.105,0,0,0-.5-1.331A1.6,1.6,0,0,0,12,11.847a1.6,1.6,0,0,0-1.187.43,2.092,2.092,0,0,0-.5,1.335.32.32,0,0,1-.64.012,2.715,2.715,0,0,1,.679-1.792A2.211,2.211,0,0,1,12,11.207a2.211,2.211,0,0,1,1.647.625,2.721,2.721,0,0,1,.679,1.792A.321.321,0,0,1,14,13.937Z" />
</svg>