<svg xmlns="http://www.w3.org/2000/svg" viewBox="0 0 24 24">
    <defs>
        <style>.anxiousa{fill:#f8de40;}.anxiousb{fill:#e7c930;}.anxiousc{fill:#864e20;}</style>
    </defs>
    <rect class="anxiousa" x="1" y="1" width="22" height="22" rx="7.656" />
    <path class="anxiousb" d="M23,13.938a14.69,14.69,0,0,1-12.406,6.531c-5.542,0-6.563-1-9.142-2.529A7.66,7.66,0,0,0,8.656,23h6.688A7.656,7.656,0,0,0,23,15.344Z" />
    <path class="anxiousc" d="M9.6,8.833,9.021,8.6c-.35-.144-.7-.283-1.058-.412s-.716-.251-1.08-.362-.731-.212-1.1-.3l-.012,0a.246.246,0,0,0-.186.448l.01.006c.325.2.656.392.991.573q.281.15.564.291a.245.245,0,0,1,0,.439q-.285.141-.564.292c-.335.18-.667.369-.992.573l-.016.01a.246.246,0,0,0,.187.447l.018,0c.374-.088.741-.19,1.105-.3s.723-.234,1.079-.362c.179-.064.355-.134.532-.2l.526-.213.573-.232A.246.246,0,0,0,9.6,8.833Z" />
    <path class="anxiousc" d="M14.405,8.833l.574-.235c.35-.144.7-.283,1.058-.412s.716-.251,1.08-.362.731-.212,1.1-.3l.012,0a.246.246,0,0,1,.186.448l-.01.006c-.325.2-.656.392-.991.573q-.28.15-.564.291a.245.245,0,0,0,0,.439q.285.141.564.292c.335.18.667.369.992.573l.016.01a.246.246,0,0,1-.187.447l-.018,0c-.374-.088-.741-.19-1.105-.3s-.723-.234-1.079-.362c-.179-.064-.355-.134-.532-.2l-.526-.213-.573-.232A.246.246,0,0,1,14.405,8.833Z" />
    <path class="anxiousc" d="M17.051,13.32c-.139-.122-.276-.247-.418-.366-.28-.241-.566-.476-.852-.708h0a.216.216,0,0,0-.245-.019l-.034.019c-.319.185-.636.372-.951.564-.2.119-.394.241-.59.364a.218.218,0,0,1-.243-.009l-.134-.1c-.149-.109-.3-.214-.449-.322-.3-.214-.6-.422-.9-.632l-.106-.074a.217.217,0,0,0-.248,0l-.106.074c-.3.21-.606.417-.9.632-.15.107-.3.212-.449.321l-.134.1a.218.218,0,0,1-.243.008c-.2-.122-.391-.244-.589-.363-.157-.1-.316-.19-.474-.285s-.319-.186-.478-.279l-.033-.019a.214.214,0,0,0-.245.019h0c-.287.232-.572.467-.853.709-.141.119-.278.244-.418.366s-.275.249-.41.377c.168-.08.335-.161.5-.247s.33-.169.492-.258c.228-.121.453-.247.677-.374a.217.217,0,0,1,.242.02l.2.16c.145.113.289.228.436.339.291.225.587.446.882.665l.074.055a.215.215,0,0,0,.246.008l.1-.063.464-.3c.155-.1.307-.2.461-.3.19-.124.377-.25.565-.378a.219.219,0,0,1,.243,0c.187.127.374.254.564.377.154.1.306.2.462.3l.464.3.1.063a.215.215,0,0,0,.246-.008L14.03,14c.295-.219.59-.44.882-.665.214-.165.426-.332.638-.5a.215.215,0,0,1,.241-.019c.225.127.451.253.68.376.162.089.328.171.492.258s.331.167.5.247C17.327,13.569,17.191,13.442,17.051,13.32Z" />
    <path class="anxiousb" d="M13.594,15.073l-.132-.116c-.089-.076-.179-.15-.269-.223h0a.07.07,0,0,0-.078-.006l-.01.006c-.1.058-.2.117-.3.178-.063.037-.125.076-.187.114a.068.068,0,0,1-.076,0l-.042-.031c-.047-.035-.1-.068-.142-.1-.094-.067-.19-.133-.285-.2l-.034-.023a.066.066,0,0,0-.078,0l-.034.023c-.095.066-.191.131-.285.2-.047.034-.095.067-.142.1l-.042.03a.066.066,0,0,1-.076,0l-.186-.115-.15-.089-.151-.088-.01-.006a.068.068,0,0,0-.078.005h0c-.09.073-.18.147-.269.223l-.132.116c-.043.038-.086.078-.129.119.053-.026.106-.051.158-.078s.1-.054.155-.082c.072-.038.143-.078.213-.118a.072.072,0,0,1,.077.006l.064.051.137.107q.138.107.279.21l.023.017a.069.069,0,0,0,.078,0l.031-.02.146-.094.146-.1c.06-.039.119-.079.178-.119a.066.066,0,0,1,.076,0l.178.119.146.095.147.1.03.019a.068.068,0,0,0,.078,0l.023-.017c.093-.07.186-.139.278-.21.068-.052.135-.1.2-.158a.066.066,0,0,1,.076-.006c.071.04.142.08.214.118.051.028.1.054.156.082s.1.052.157.078C13.68,15.151,13.637,15.111,13.594,15.073Z" />
</svg>