<svg xmlns="http://www.w3.org/2000/svg" viewBox="0 0 24 24">
    <defs>
        <style>.cravinga{fill:#f8de40;}.cravingb{fill:#864e20;}.cravingc{fill:#e7c930;}.cravingd{fill:#f06880;}.cravinge{fill:#26a9e0;}</style>
    </defs>
    <rect class="cravinga" x="1" y="1" width="22" height="22" rx="7.656" />
    <path class="cravingb" d="M7.055,7.313A1.747,1.747,0,1,0,8.8,9.059,1.747,1.747,0,0,0,7.055,7.313Z" />
    <path class="cravingb" d="M16.958,7.313A1.747,1.747,0,1,0,18.7,9.059,1.747,1.747,0,0,0,16.958,7.313Z" />
    <path class="cravingc" d="M23,13.938a14.69,14.69,0,0,1-12.406,6.531c-5.542,0-6.563-1-9.142-2.529A7.66,7.66,0,0,0,8.656,23h6.688A7.656,7.656,0,0,0,23,15.344Z" />
    <path class="cravingb" d="M16.083,12.556A5.487,5.487,0,0,0,12,10.806a5.487,5.487,0,0,0-4.083,1.75c-.959,1.292-.147,2.667.885,2.583s2.781-.285,3.2-.285,2.167.2,3.2.285S17.042,13.848,16.083,12.556Z" />
    <path class="cravingd" d="M13.75,13.266c-1.344-.3-1.75.109-1.75.109s-.406-.406-1.75-.109A2.463,2.463,0,0,0,8.6,15.136a1.1,1.1,0,0,0,.207,0c1.031-.083,2.781-.285,3.2-.285s2.167.2,3.2.285a1.1,1.1,0,0,0,.207,0A2.463,2.463,0,0,0,13.75,13.266Z" />
    <path class="cravinge" d="M8.8,15.139a1.115,1.115,0,0,1-.742-.21,25.932,25.932,0,0,1,0,3.087,1.236,1.236,0,0,0,2.362.687,8.153,8.153,0,0,0,.393-3.755C10.154,15.012,9.369,15.094,8.8,15.139Z" />
</svg>