<svg xmlns="http://www.w3.org/2000/svg" viewBox="0 0 24 24">
    <defs>
        <style>.exhausteda{fill:#f8de40;}.exhaustedb{fill:#e7c930;}.exhaustedc{fill:#864e20;}</style>
    </defs>
    <rect class="exhausteda" x="1" y="1" width="22" height="22" rx="7.656" />
    <path class="exhaustedb" d="M23,13.938a14.69,14.69,0,0,1-12.406,6.531c-5.542,0-6.563-1-9.142-2.529A7.66,7.66,0,0,0,8.656,23h6.688A7.656,7.656,0,0,0,23,15.344Z" />
    <path class="exhaustedc" d="M16.083,12.556A5.487,5.487,0,0,0,12,10.806a5.487,5.487,0,0,0-4.083,1.75c-.959,1.292-.147,2.667.885,2.583s2.781-.285,3.2-.285,2.167.2,3.2.285S17.042,13.848,16.083,12.556Z" />
    <path class="exhaustedc" d="M9.3,7.173h0a3.027,3.027,0,0,0-.447.006,4.392,4.392,0,0,0-.873.163c-.142.043-.285.086-.425.138s-.271.123-.407.185a3.642,3.642,0,0,0-.391.218c-.125.084-.256.158-.373.251a4.837,4.837,0,0,0-1.217,1.31,3.714,3.714,0,0,0-.512,1.245.173.173,0,0,0,.286.157c.324-.283.626-.545.933-.8.406-.336.8-.66,1.218-.962.1-.083.209-.149.312-.226l.155-.116c.051-.04.108-.07.16-.108.1-.074.212-.144.315-.224L8.037,8.4c.108-.069.217-.14.325-.215.215-.162.449-.291.675-.46.115-.081.234-.159.353-.242A.173.173,0,0,0,9.3,7.173Z" />
    <path class="exhaustedc" d="M14.744,7.173h.005a3.029,3.029,0,0,1,.447.006,4.405,4.405,0,0,1,.873.163c.142.043.285.086.424.138s.272.123.408.185a3.642,3.642,0,0,1,.391.218c.124.084.255.158.373.251a4.837,4.837,0,0,1,1.217,1.31,3.735,3.735,0,0,1,.512,1.245.173.173,0,0,1-.286.157c-.324-.283-.626-.545-.933-.8-.406-.336-.8-.66-1.218-.962-.1-.083-.209-.149-.312-.226l-.155-.116c-.051-.04-.108-.07-.161-.108-.1-.074-.211-.144-.314-.224L16.006,8.4c-.109-.069-.217-.14-.325-.215-.215-.162-.449-.291-.675-.46-.115-.081-.234-.159-.353-.242A.173.173,0,0,1,14.744,7.173Z" />
</svg>