<svg xmlns="http://www.w3.org/2000/svg" viewBox="0 0 24 24">
    <defs>
        <style>.nervousa{fill:#f8de40;}.nervousb{fill:#e7c930;}.nervousc{fill:#864e20;}.nervousd{fill:#f06880;}.nervouse{fill:#26a9e0;}</style>
    </defs>
    <rect class="nervousa" x="1" y="1" width="22" height="22" rx="7.656" />
    <path class="nervousb" d="M23,13.938a14.688,14.688,0,0,1-12.406,6.531c-5.542,0-6.563-1-9.142-2.529A7.66,7.66,0,0,0,8.656,23h6.688A7.656,7.656,0,0,0,23,15.344Z" />
    <path class="nervousc" d="M16.666,12.583H7.334a.493.493,0,0,0-.492.544c.123,1.175.875,3.842,5.158,3.842s5.035-2.667,5.158-3.842A.493.493,0,0,0,16.666,12.583Z" />
    <path class="nervousd" d="M12,16.969a6.538,6.538,0,0,0,2.959-.6,1.979,1.979,0,0,0-1.209-.853c-1.344-.3-1.75.109-1.75.109s-.406-.406-1.75-.109a1.979,1.979,0,0,0-1.209.853A6.538,6.538,0,0,0,12,16.969Z" />
    <path class="nervousc" d="M9.052,6.468c-.376.207-.728.4-1.082.58-.469.242-.926.473-1.4.679-.114.061-.236.1-.354.154l-.175.08c-.059.028-.121.045-.181.072-.118.049-.237.1-.355.15l-.01.005c-.121.044-.242.09-.364.14-.244.112-.5.187-.757.3-.13.055-.263.105-.4.161A.173.173,0,0,0,4,9.12h0a3.068,3.068,0,0,0,.438.09,4.466,4.466,0,0,0,.888.028c.147-.011.3-.023.444-.044s.291-.061.437-.093a3.6,3.6,0,0,0,.43-.129c.139-.055.283-.1.418-.165A4.86,4.86,0,0,0,8.531,7.789,3.725,3.725,0,0,0,9.3,6.683.173.173,0,0,0,9.052,6.468Z" />
    <path class="nervousc" d="M7.062,8.808c-.135.066-.279.11-.418.165a3.6,3.6,0,0,1-.43.129c-.146.032-.29.068-.437.093s-.3.033-.444.044c-.022,0-.044,0-.066,0A1.747,1.747,0,1,0,8.358,7.955,4.821,4.821,0,0,1,7.062,8.808Z" />
    <path class="nervousc" d="M14.948,6.468c.376.207.728.4,1.082.58.469.242.926.473,1.4.679.114.061.236.1.354.154l.175.08c.059.028.121.045.181.072.118.049.237.1.355.15l.01.005c.121.044.242.09.364.14.244.112.5.187.757.3.13.055.263.105.4.161A.173.173,0,0,1,20,9.12h0a3.068,3.068,0,0,1-.438.09,4.466,4.466,0,0,1-.888.028c-.147-.011-.3-.023-.444-.044s-.291-.061-.437-.093a3.6,3.6,0,0,1-.43-.129c-.139-.055-.283-.1-.418-.165a4.86,4.86,0,0,1-1.469-1.019A3.725,3.725,0,0,1,14.7,6.683.173.173,0,0,1,14.948,6.468Z" />
    <path class="nervousc" d="M16.938,8.808c.135.066.279.11.418.165a3.6,3.6,0,0,0,.43.129c.146.032.29.068.437.093s.3.033.444.044c.022,0,.044,0,.066,0a1.747,1.747,0,1,1-3.091-1.288A4.821,4.821,0,0,0,16.938,8.808Z" />
    <path class="nervouse" d="M5.32,5.007A6.6,6.6,0,0,0,3.167,1,6.6,6.6,0,0,0,1.013,5.007C.838,7.336,2.49,7.787,3.167,7.787S5.5,7.336,5.32,5.007Z" />
</svg>