<svg xmlns="http://www.w3.org/2000/svg" viewBox="0 0 24 24">
    <defs>
        <style>.peacefula{fill:#f8de40;}.peacefulb{fill:#864e20;}.peacefulc{fill:#e7c930;}</style>
    </defs>
    <rect class="peacefula" x="1" y="1" width="22" height="22" rx="7.656" />
    <path class="peacefulb" d="M8.907,8.275a.182.182,0,0,0-.331-.1,2.016,2.016,0,0,1-.569.567,1.728,1.728,0,0,1-1.915,0,2.029,2.029,0,0,1-.571-.569.182.182,0,0,0-.331.1,1.63,1.63,0,0,0,.346,1.022,1.926,1.926,0,0,0,3.026,0A1.636,1.636,0,0,0,8.907,8.275Z" />
    <path class="peacefulb" d="M18.81,8.275a.182.182,0,0,0-.331-.1,2.026,2.026,0,0,1-.568.567,1.73,1.73,0,0,1-1.916,0,2.029,2.029,0,0,1-.571-.569.182.182,0,0,0-.331.1,1.63,1.63,0,0,0,.346,1.022,1.926,1.926,0,0,0,3.026,0A1.636,1.636,0,0,0,18.81,8.275Z" />
    <path class="peacefulc" d="M23,13.938a14.69,14.69,0,0,1-12.406,6.531c-5.542,0-6.563-1-9.142-2.529A7.66,7.66,0,0,0,8.656,23h6.688A7.656,7.656,0,0,0,23,15.344Z" />
    <path class="peacefulb" d="M15.633,12.993A7.322,7.322,0,0,1,12,14.044a7.322,7.322,0,0,1-3.633-1.051c-.363-.241-.478-.215-.478-.129,0,1.056,2.055,1.708,4.111,1.708s4.111-.652,4.111-1.708C16.111,12.778,16,12.752,15.633,12.993Z" />
    <path class="peacefulc" d="M13.136,15.183a2.262,2.262,0,0,1-2.272,0c-.268-.2-.252.381.341.536a2.786,2.786,0,0,0,.8.172,2.786,2.786,0,0,0,.8-.172C13.388,15.564,13.4,14.98,13.136,15.183Z" />
</svg>