<svg xmlns="http://www.w3.org/2000/svg" viewBox="0 0 24 24">
    <defs>
        <style>.scareda{fill:#f8de40;}.scaredb{fill:#e7c930;}.scaredc{fill:#864e20;}.scaredd{fill:#f06880;}</style>
    </defs>
    <rect class="scareda" x="1" y="1" width="22" height="22" rx="7.656" />
    <path class="scaredb" d="M23,13.938a14.69,14.69,0,0,1-12.406,6.531c-5.542,0-6.563-1-9.142-2.529A7.66,7.66,0,0,0,8.656,23h6.688A7.656,7.656,0,0,0,23,15.344Z" />
    <path class="scaredc" d="M16.083,12.556A5.487,5.487,0,0,0,12,10.806a5.487,5.487,0,0,0-4.083,1.75c-.959,1.292-.147,2.667.885,2.583s2.781-.285,3.2-.285,2.167.2,3.2.285S17.042,13.848,16.083,12.556Z" />
    <path class="scaredd" d="M13.75,13.266c-1.344-.3-1.75.109-1.75.109s-.406-.406-1.75-.109A2.463,2.463,0,0,0,8.6,15.136a1.1,1.1,0,0,0,.207,0c1.031-.083,2.781-.285,3.2-.285s2.167.2,3.2.285a1.1,1.1,0,0,0,.207,0A2.463,2.463,0,0,0,13.75,13.266Z" />
    <path class="scaredb" d="M13.965,15.91a9.842,9.842,0,0,0-1.965-.3,9.842,9.842,0,0,0-1.965.3c-.294.061-.3.3,0,.261S12,16.041,12,16.041s1.663.09,1.965.13S14.259,15.971,13.965,15.91Z" />
    <path class="scaredc" d="M9.6,8.833,9.021,8.6c-.35-.144-.7-.283-1.058-.412s-.716-.251-1.08-.362-.731-.212-1.1-.3l-.012,0a.246.246,0,0,0-.186.448l.01.006c.325.2.656.392.991.573q.281.15.564.291a.245.245,0,0,1,0,.439q-.285.141-.564.292c-.335.18-.667.369-.992.573l-.016.01a.246.246,0,0,0,.187.447l.018,0c.374-.088.741-.19,1.105-.3s.723-.234,1.079-.362c.179-.064.355-.134.532-.2l.526-.213.573-.232A.246.246,0,0,0,9.6,8.833Z" />
    <path class="scaredc" d="M14.405,8.833l.574-.235c.35-.144.7-.283,1.058-.412s.716-.251,1.08-.362.731-.212,1.1-.3l.012,0a.246.246,0,0,1,.186.448l-.01.006c-.325.2-.656.392-.991.573q-.28.15-.564.291a.245.245,0,0,0,0,.439q.285.141.564.292c.335.18.667.369.992.573l.016.01a.246.246,0,0,1-.187.447l-.018,0c-.374-.088-.741-.19-1.105-.3s-.723-.234-1.079-.362c-.179-.064-.355-.134-.532-.2l-.526-.213-.573-.232A.246.246,0,0,1,14.405,8.833Z" />
</svg>